<?xml version="1.0" encoding="utf-8"?>
<!-- Generator: Adobe Illustrator 27.3.1, SVG Export Plug-In . SVG Version: 6.00 Build 0)  -->
<svg version="1.1" id="Layer_1" xmlns="http://www.w3.org/2000/svg" xmlns:xlink="http://www.w3.org/1999/xlink" x="0px" y="0px"
	 viewBox="0 0 260 53.4" style="enable-background:new 0 0 260 53.4;" xml:space="preserve">
<path d="M0.5,32.7c0-1.7,0.3-3.2,0.8-4.6c0.5-1.4,1.3-2.6,2.2-3.6c1-1,2.1-1.8,3.4-2.4c1.3-0.6,2.8-0.9,4.4-0.9
	c1.4,0,2.7,0.2,3.8,0.7c1.1,0.5,2.1,1.2,2.9,2.1c0.8,0.9,1.4,2,1.8,3.3c0.4,1.3,0.6,2.7,0.6,4.3c0,0.3-0.1,0.6-0.3,0.8
	c-0.2,0.2-0.5,0.3-0.8,0.3H3.6c0,1.3,0.2,2.5,0.7,3.6c0.4,1.1,1,2,1.8,2.8c0.8,0.8,1.7,1.4,2.7,1.8s2.2,0.6,3.4,0.6c1,0,2-0.1,3-0.5
	s1.9-0.9,2.8-1.5c0.6-0.4,1.1-0.3,1.4,0.3l0.4,0.5c0.3,0.6,0.2,1.1-0.3,1.4c-1,0.8-2.2,1.4-3.5,1.8s-2.6,0.7-3.8,0.7
	c-1.7,0-3.2-0.3-4.6-0.8S4.8,42,3.8,41s-1.8-2.2-2.4-3.7C0.8,35.9,0.5,34.4,0.5,32.7z M17.5,30.5c-0.1-2.1-0.7-3.8-1.8-5
	s-2.6-1.9-4.4-1.9c-2,0-3.7,0.6-5,1.9s-2.2,2.9-2.5,5H17.5z"/>
<path d="M24.2,32.6c0-1.6,0.3-3.1,0.9-4.5s1.4-2.6,2.4-3.6s2.2-1.8,3.7-2.4c1.4-0.6,2.9-0.9,4.6-0.9s3.2,0.3,4.6,0.9
	s2.6,1.4,3.7,2.4s1.9,2.2,2.5,3.6c0.6,1.4,0.9,2.9,0.9,4.5c0,1.6-0.3,3.2-0.9,4.6c-0.6,1.4-1.4,2.6-2.5,3.7c-1,1-2.3,1.9-3.7,2.5
	c-1.4,0.6-2.9,0.9-4.5,0.9c-1.6,0-3.2-0.3-4.6-0.9c-1.4-0.6-2.6-1.4-3.7-2.5c-1-1-1.9-2.3-2.5-3.7C24.5,35.7,24.2,34.2,24.2,32.6z
	 M27.2,32.6c0,1.2,0.2,2.4,0.6,3.5c0.4,1.1,1,2,1.8,2.8c0.8,0.8,1.7,1.4,2.7,1.9s2.2,0.7,3.4,0.7c1.2,0,2.3-0.2,3.3-0.7
	s1.9-1.1,2.7-1.9s1.4-1.7,1.8-2.8c0.4-1.1,0.7-2.2,0.7-3.5c0-1.2-0.2-2.4-0.7-3.4s-1-2-1.8-2.8s-1.7-1.4-2.7-1.9
	c-1-0.5-2.2-0.7-3.3-0.7s-2.3,0.2-3.4,0.7s-2,1.1-2.7,1.9c-0.8,0.8-1.4,1.7-1.8,2.8S27.2,31.4,27.2,32.6z"/>
<path d="M52.5,22.8c0-0.7,0.4-1.1,1.1-1.1h0.8c0.7,0,1,0.4,1,1.1v2.5c0,0.3,0,0.6-0.1,0.9c0,0.3-0.1,0.5-0.1,0.6h0.1
	c0.3-0.8,0.8-1.6,1.4-2.3s1.3-1.3,2.1-1.8s1.7-0.9,2.6-1.2s1.8-0.4,2.8-0.4c2.6,0,4.4,0.7,5.6,2c1.2,1.4,1.8,3.5,1.8,6.5v12.9
	c0,0.7-0.4,1.1-1.1,1.1h-0.8c-0.7,0-1.1-0.4-1.1-1.1V30.5c0-2.3-0.4-4-1.1-5c-0.8-1-2-1.5-3.7-1.5c-1.2,0-2.3,0.2-3.3,0.7
	c-1,0.5-1.9,1.1-2.6,1.9c-0.7,0.8-1.3,1.8-1.8,2.8c-0.4,1.1-0.6,2.3-0.6,3.5v9.7c0,0.7-0.3,1.1-1,1.1h-0.8c-0.7,0-1.1-0.4-1.1-1.1
	L52.5,22.8L52.5,22.8z"/>
<path d="M78,22.8c0-0.7,0.4-1.1,1.1-1.1H80c0.7,0,1.1,0.4,1.1,1.1v19.8c0,0.7-0.3,1.1-1.1,1.1h-0.8c-0.7,0-1.1-0.4-1.1-1.1V22.8z"/>
<path d="M86.3,32.7c0-1.7,0.3-3.2,0.9-4.6s1.4-2.6,2.4-3.6c1-1,2.2-1.8,3.7-2.4c1.4-0.6,2.9-0.9,4.6-0.9c1.3,0,2.6,0.2,3.9,0.7
	c1.3,0.5,2.4,1.1,3.4,1.8c0.5,0.4,0.6,0.9,0.1,1.5l-0.3,0.5c-0.3,0.5-0.8,0.6-1.5,0.2c-0.8-0.6-1.8-1.1-2.7-1.5s-1.9-0.5-2.8-0.5
	c-1.2,0-2.4,0.2-3.4,0.7c-1.1,0.5-2,1.1-2.7,1.9c-0.8,0.8-1.4,1.7-1.8,2.8c-0.4,1.1-0.6,2.2-0.6,3.5c0,1.3,0.2,2.5,0.6,3.5
	s1,2,1.8,2.8c0.8,0.8,1.7,1.4,2.7,1.8s2.2,0.7,3.4,0.7c1.1,0,2.2-0.2,3.2-0.6s2.1-1,3-1.8c0.6-0.4,1-0.3,1.4,0.3l0.3,0.4
	c0.3,0.5,0.2,1-0.3,1.5c-1.1,0.9-2.3,1.6-3.7,2.1s-2.7,0.7-4.1,0.7c-1.7,0-3.2-0.3-4.7-0.8S90.5,42,89.5,41c-1-1-1.8-2.2-2.4-3.7
	C86.6,35.9,86.3,34.4,86.3,32.7z"/>
<path d="M112.2,41.7c0-0.5,0.2-0.7,0.7-0.7h1.2c0.5,0,0.7,0.2,0.7,0.7v1.3c0,0.5-0.2,0.7-0.7,0.7h-1.2c-0.5,0-0.7-0.2-0.7-0.7V41.7z
	"/>
<path d="M119,32.8c0-1.8,0.2-3.3,0.7-4.7c0.5-1.4,1.2-2.6,2-3.6s1.9-1.8,3.1-2.3c1.2-0.5,2.5-0.8,3.9-0.8c1.4,0,2.6,0.3,3.5,0.8
	c0.9,0.5,1.7,1.1,2.3,1.7c0.7,0.7,1.3,1.5,1.7,2.4h0.1c0-0.2-0.1-0.4-0.1-0.5c0-0.1-0.1-0.3-0.1-0.5s0-0.5,0-0.7V13.9
	c0-0.5,0.2-0.7,0.7-0.7h0.4c0.5,0,0.7,0.2,0.7,0.7v29.1c0,0.5-0.2,0.7-0.7,0.7H137c-0.5,0-0.7-0.2-0.7-0.7v-2c0-0.2,0-0.5,0-0.7
	s0-0.4,0.1-0.5c0-0.2,0.1-0.3,0.1-0.4h-0.1c-0.4,0.9-1,1.8-1.7,2.5c-0.6,0.6-1.4,1.2-2.4,1.7c-1,0.5-2.3,0.8-3.8,0.8
	c-1.5,0-2.8-0.3-3.9-0.8c-1.2-0.5-2.2-1.3-3-2.3s-1.4-2.2-1.9-3.6C119.2,36,119,34.4,119,32.8z M120.9,32.8c0,1.5,0.2,2.8,0.6,4
	s0.9,2.2,1.6,3s1.5,1.5,2.4,2s1.9,0.7,3.1,0.7c1,0,2-0.2,2.9-0.5c0.9-0.4,1.8-0.9,2.5-1.7c0.7-0.8,1.3-1.8,1.7-3s0.6-2.7,0.6-4.4
	c0-1.2-0.1-2.4-0.5-3.6s-0.8-2.2-1.4-3.1s-1.4-1.6-2.4-2.2c-0.9-0.6-2.1-0.8-3.3-0.8c-1.1,0-2.1,0.2-3,0.7c-0.9,0.4-1.8,1.1-2.5,1.9
	c-0.7,0.8-1.2,1.8-1.7,3C121.2,29.9,120.9,31.2,120.9,32.8z"/>
<path d="M145.4,22.6c0-0.5,0.2-0.7,0.7-0.7h0.4c0.5,0,0.7,0.2,0.7,0.7v20.3c0,0.5-0.2,0.7-0.7,0.7h-0.4c-0.5,0-0.7-0.2-0.7-0.7V22.6
	z"/>
<path d="M155.6,50.1c0.2-0.4,0.5-0.5,1-0.3c0.5,0.2,1.2,0.5,2.1,0.8c0.9,0.3,2,0.4,3.3,0.4c1.1,0,2.1-0.2,3.1-0.4
	c1-0.3,1.8-0.8,2.6-1.4s1.3-1.4,1.8-2.3s0.7-2.1,0.7-3.4V41c0-0.2,0-0.5,0-0.7c0-0.2,0-0.4,0.1-0.6c0-0.2,0.1-0.3,0.1-0.5h-0.1
	c-0.7,1.3-1.6,2.4-2.8,3.2c-1.2,0.8-2.7,1.2-4.5,1.2c-1.4,0-2.7-0.3-3.9-0.8c-1.2-0.5-2.2-1.3-3.1-2.3c-0.9-1-1.5-2.2-2-3.6
	c-0.5-1.4-0.7-3-0.7-4.7c0-1.7,0.2-3.2,0.6-4.5c0.4-1.4,1.1-2.5,1.9-3.5c0.8-1,1.8-1.7,3-2.2s2.5-0.8,4-0.8s2.7,0.2,3.6,0.7
	c0.9,0.5,1.7,0.9,2.3,1.5c0.7,0.6,1.2,1.4,1.5,2.1h0.1c0-0.1-0.1-0.1-0.1-0.2s0-0.3,0-0.6v-2.2c0-0.5,0.2-0.7,0.7-0.7h0.4
	c0.5,0,0.7,0.2,0.7,0.7v20.9c0,1.7-0.3,3.1-0.8,4.3s-1.3,2.1-2.2,2.9c-0.9,0.7-2,1.3-3.2,1.6s-2.4,0.5-3.7,0.5
	c-2.1,0-4.2-0.4-6.2-1.3c-0.5-0.2-0.6-0.5-0.4-1L155.6,50.1z M163,41.9c1,0,1.9-0.2,2.7-0.5s1.6-0.9,2.3-1.6
	c0.6-0.8,1.2-1.7,1.6-2.9c0.4-1.2,0.6-2.7,0.6-4.4c0-1.8-0.2-3.3-0.6-4.5s-0.9-2.2-1.6-2.9c-0.7-0.7-1.5-1.2-2.4-1.6
	c-0.9-0.3-1.9-0.5-2.8-0.5c-2.5,0-4.4,0.8-5.7,2.4c-1.3,1.6-2,3.9-2,6.8c0,1.5,0.2,2.9,0.6,4.1s0.9,2.2,1.6,3
	c0.7,0.8,1.5,1.5,2.5,1.9C160.7,41.7,161.8,41.9,163,41.9z"/>
<path d="M179.3,22.6c0-0.5,0.2-0.7,0.7-0.7h0.4c0.5,0,0.7,0.2,0.7,0.7v20.3c0,0.5-0.2,0.7-0.7,0.7H180c-0.5,0-0.7-0.2-0.7-0.7V22.6z
	"/>
<path d="M189.1,23.6H187c-0.5,0-0.7-0.2-0.7-0.7v-0.2c0-0.5,0.2-0.7,0.7-0.7h2.1v-5.5c0-0.5,0.2-0.7,0.7-0.7h0.4
	c0.5,0,0.7,0.2,0.7,0.7V22h5c0.5,0,0.7,0.2,0.7,0.7v0.2c0,0.5-0.2,0.7-0.7,0.7h-5v12c0,1.5,0.2,2.6,0.6,3.5c0.4,0.9,0.9,1.5,1.4,1.9
	s1.1,0.7,1.8,0.8c0.6,0.1,1.1,0.2,1.6,0.2c0.6,0,0.9,0.3,0.9,0.8v0.2c0,0.5-0.2,0.8-0.7,0.8c-1.3,0-2.4-0.2-3.3-0.6
	c-0.9-0.4-1.7-1-2.3-1.7s-1-1.6-1.3-2.5c-0.3-1-0.4-2.1-0.4-3.3V23.6z"/>
<path d="M200.6,37.8c0-1.2,0.2-2.3,0.7-3.1s1.1-1.6,1.9-2.1s1.7-1,2.7-1.3c1-0.3,2-0.5,3-0.7s2-0.2,2.9-0.3s1.7,0,2.3,0h1.4v-0.7
	c0-1.2-0.1-2.2-0.4-3.1c-0.3-0.8-0.7-1.5-1.2-2c-0.5-0.5-1.2-0.9-1.9-1.1s-1.5-0.3-2.4-0.3c-1.3,0-2.5,0.2-3.4,0.6
	c-1,0.4-1.7,0.8-2.2,1.1c-0.4,0.3-0.8,0.2-1.1-0.2l-0.2-0.3c-0.3-0.4-0.3-0.8,0.1-1c0.5-0.3,1.3-0.8,2.5-1.2
	c1.2-0.5,2.6-0.7,4.3-0.7c2.5,0,4.4,0.7,5.8,2.1s2,3.4,2,6.2v13.4c0,0.5-0.2,0.7-0.7,0.7h-0.4c-0.5,0-0.7-0.2-0.7-0.7v-2.1
	c0-0.3,0-0.6,0-0.8c0-0.2,0-0.5,0.1-0.6c0-0.2,0.1-0.4,0.1-0.5h-0.1c-0.5,1.1-1.1,2-1.7,2.7c-0.6,0.7-1.4,1.3-2.4,1.8
	s-2.2,0.8-3.6,0.8c-0.9,0-1.8-0.1-2.6-0.4s-1.7-0.6-2.4-1.2c-0.7-0.5-1.3-1.2-1.7-2S200.6,39,200.6,37.8z M202.5,37.7
	c0,0.6,0.1,1.2,0.4,1.7c0.2,0.6,0.6,1.1,1.1,1.5c0.5,0.5,1.1,0.8,1.8,1.1s1.5,0.4,2.4,0.4c1.2,0,2.2-0.3,3.2-0.8
	c0.9-0.5,1.7-1.3,2.3-2.2s1.1-1.9,1.4-3s0.5-2.2,0.5-3.3v-1.2h-1.4c-0.6,0-1.3,0-2.1,0c-0.8,0-1.7,0.1-2.5,0.2s-1.7,0.3-2.6,0.5
	s-1.6,0.6-2.2,1c-0.7,0.4-1.2,1-1.6,1.6C202.7,36,202.5,36.8,202.5,37.7z"/>
<path d="M223.5,13.9c0-0.5,0.2-0.7,0.7-0.7h0.4c0.5,0,0.7,0.2,0.7,0.7v24.8c0,0.8,0.1,1.4,0.2,1.8s0.4,0.8,0.6,1
	c0.3,0.2,0.5,0.4,0.8,0.5c0.3,0.1,0.6,0.1,0.8,0.2c0.2,0,0.4,0.1,0.5,0.2c0.1,0.1,0.2,0.3,0.2,0.5V43c0,0.2-0.1,0.4-0.1,0.6
	c-0.1,0.2-0.3,0.2-0.6,0.2s-0.7,0-1.2-0.1s-0.9-0.3-1.4-0.6s-0.9-0.8-1.2-1.4c-0.3-0.6-0.5-1.4-0.5-2.4L223.5,13.9L223.5,13.9z"/>
<path d="M247.3,25.9c-2.8,0-5.8-1.5-6.6-5.1c-0.8-3.6,1-6.7,4.5-7.6c3.2-0.9,7,1.4,7.9,4.6c0.5,1.7,0.3,3.6-0.6,5.1
	c-0.8,1.4-2.1,2.4-3.9,2.9l-0.1,0C248.1,25.8,247.7,25.9,247.3,25.9z M246.6,14.2c-0.4,0-0.8,0-1.1,0.1c-2.8,0.7-4.2,3.2-3.6,6.1
	c0.8,3.4,3.8,4.5,6.5,4c1.4-0.4,2.4-1.1,3.1-2.2c0.7-1.2,0.9-2.8,0.5-4.1C251.2,15.9,248.9,14.2,246.6,14.2z M254.9,9.1
	c-0.7,0-1.5-0.2-2.1-0.6c-2.1-1.2-2.9-3.8-1.7-6c1.2-2.1,3.9-2.9,6-1.7l0,0c1,0.6,1.8,1.5,2.1,2.6s0.2,2.3-0.4,3.3S257.2,8.6,256,9
	C255.7,9.1,255.2,9.1,254.9,9.1z M254.9,1.6c-1.1,0-2.2,0.6-2.7,1.6c-0.8,1.5-0.3,3.4,1.2,4.3c0.7,0.4,1.6,0.5,2.4,0.3
	c0.8-0.2,1.5-0.8,1.9-1.5s0.5-1.6,0.3-2.4s-0.8-1.5-1.5-1.9l0,0C255.9,1.7,255.4,1.6,254.9,1.6z"/>
</svg>
